<svg width="940" height="706" viewBox="0 0 940 706" fill="none" xmlns="http://www.w3.org/2000/svg">
<g filter="url(#filter0_d_305_43)">
<path d="M930 353L232.5 658.707L232.5 47.293L930 353Z" fill="url(#paint0_linear_305_43)"/>
</g>
<path fill-rule="evenodd" clip-rule="evenodd" d="M321.336 462.098C320.517 464.4 320.531 460.188 320.625 459.252C321.444 456.952 321.43 461.172 321.336 462.102L321.336 462.098Z" fill="black"/>
<path fill-rule="evenodd" clip-rule="evenodd" d="M313.511 443.598C313.24 444.952 312.606 443.144 312.799 442.175C313.07 440.825 313.704 442.625 313.511 443.595L313.511 443.598Z" fill="black"/>
<path fill-rule="evenodd" clip-rule="evenodd" d="M317.779 435.778C317.508 437.132 316.874 435.324 317.067 434.355C317.339 432.995 317.972 434.805 317.779 435.775L317.779 435.778Z" fill="black"/>
<path fill-rule="evenodd" clip-rule="evenodd" d="M317.779 431.508C316.588 433.557 317.213 427.872 317.067 426.528C318.259 424.478 317.634 430.158 317.779 431.508Z" fill="black"/>
<path fill-rule="evenodd" clip-rule="evenodd" d="M310.665 410.168C309.564 412.343 310.038 407.082 309.953 405.899C311.054 403.719 310.58 408.979 310.665 410.169L310.665 410.168Z" fill="black"/>
<path fill-rule="evenodd" clip-rule="evenodd" d="M317.779 399.488C315.7 396.699 317.843 394.108 316.356 390.951C319.392 391.241 317.034 396.921 317.779 399.491L317.779 399.488Z" fill="black"/>
<path fill-rule="evenodd" clip-rule="evenodd" d="M319.913 393.088C319.45 395.094 319.087 391.449 319.202 390.953C319.532 389.533 320.538 390.383 319.913 393.093L319.913 393.088Z" fill="black"/>
<path fill-rule="evenodd" clip-rule="evenodd" d="M319.913 382.418C319.642 383.772 319.008 381.964 319.202 380.995C319.472 379.635 320.107 381.445 319.913 382.415L319.913 382.418Z" fill="black"/>
<path fill-rule="evenodd" clip-rule="evenodd" d="M312.088 360.368C309.722 362.615 311.893 344.78 312.088 351.119L312.088 360.369L312.088 360.368Z" fill="black"/>
<path fill-rule="evenodd" clip-rule="evenodd" d="M317.067 351.118C316.604 353.124 316.242 349.479 316.356 348.984C316.685 347.544 317.692 348.404 317.067 351.114L317.067 351.118Z" fill="black"/>
<path fill-rule="evenodd" clip-rule="evenodd" d="M316.356 338.308C315.481 337.997 314.895 337.398 314.933 336.174C317.401 335.554 317.374 337.264 316.356 338.304L316.356 338.308Z" fill="black"/>
<path fill-rule="evenodd" clip-rule="evenodd" d="M314.221 332.618C314.293 330.807 316.872 330.937 317.779 331.907C317.707 333.717 315.128 333.587 314.221 332.617L314.221 332.618Z" fill="black"/>
<path fill-rule="evenodd" clip-rule="evenodd" d="M309.242 330.488C309.413 329.237 310.466 328.866 312.088 329.065C312.804 331.195 310.503 330.315 309.242 330.485L309.242 330.488Z" fill="black"/>
<path fill-rule="evenodd" clip-rule="evenodd" d="M314.933 326.928C315.02 324.293 315.968 325.138 317.779 325.505C317.311 326.455 316.259 326.825 314.933 326.925L314.933 326.928Z" fill="black"/>
<path fill-rule="evenodd" clip-rule="evenodd" d="M314.933 320.528C315.244 319.653 315.843 319.067 317.067 319.105C317.4 320.615 316.051 320.455 314.933 320.525L314.933 320.528Z" fill="black"/>
<path fill-rule="evenodd" clip-rule="evenodd" d="M314.933 313.408C317.091 310.778 317.33 315.568 314.933 313.408V313.408Z" fill="black"/>
<path fill-rule="evenodd" clip-rule="evenodd" d="M317.067 307.008C316.847 307.973 315.286 307.598 314.221 307.719C314.421 306.069 316.122 306.089 317.067 307.009L317.067 307.008Z" fill="black"/>
<path fill-rule="evenodd" clip-rule="evenodd" d="M314.221 300.608C315.871 300.381 316.952 300.722 317.779 301.319C317.717 303.429 313.537 303.219 314.221 300.609L314.221 300.608Z" fill="black"/>
<path fill-rule="evenodd" clip-rule="evenodd" d="M317.779 297.048L314.933 297.048C314.215 294.908 316.518 295.787 317.779 295.625L317.779 297.045L317.779 297.048Z" fill="black"/>
<path fill-rule="evenodd" clip-rule="evenodd" d="M314.933 290.648C314.215 288.508 316.518 289.387 317.779 289.225C317.607 290.465 316.554 290.845 314.933 290.645L314.933 290.648Z" fill="black"/>
<path fill-rule="evenodd" clip-rule="evenodd" d="M317.779 285.668L314.221 285.668C314.099 283.098 317.901 283.098 317.779 285.668Z" fill="black"/>
<path fill-rule="evenodd" clip-rule="evenodd" d="M317.067 279.968L314.221 279.968C314.005 278.091 315.706 278.133 317.067 277.833L317.067 279.973L317.067 279.968Z" fill="black"/>
<path fill-rule="evenodd" clip-rule="evenodd" d="M324.181 254.358L322.758 254.358L322.758 252.935L324.181 252.935L324.181 254.355L324.181 254.358Z" fill="black"/>
<path fill-rule="evenodd" clip-rule="evenodd" d="M319.913 233.018C319.642 234.372 319.008 232.564 319.202 231.595C319.472 230.235 320.107 232.045 319.913 233.015L319.913 233.018Z" fill="black"/>
<path fill-rule="evenodd" clip-rule="evenodd" d="M311.376 233.728C309.48 232.566 311.309 231.641 311.376 230.882C311.875 225.292 312.667 229.182 311.376 233.732L311.376 233.728Z" fill="black"/>
<path fill-rule="evenodd" clip-rule="evenodd" d="M319.202 229.458C318.739 231.464 318.376 227.819 318.49 227.324C318.82 225.894 319.827 226.744 319.202 229.454L319.202 229.458Z" fill="black"/>
<path fill-rule="evenodd" clip-rule="evenodd" d="M317.067 220.208C315.639 220.45 314.841 220.062 314.933 218.785L317.067 218.785L317.067 220.205L317.067 220.208Z" fill="black"/>
<path fill-rule="evenodd" clip-rule="evenodd" d="M314.933 215.948C314.215 213.808 316.518 214.687 317.779 214.525C317.607 215.765 316.554 216.145 314.933 215.945L314.933 215.948Z" fill="black"/>
<path fill-rule="evenodd" clip-rule="evenodd" d="M317.779 210.968C315.742 211.108 313.896 211.056 314.221 208.834C315.595 207.444 318.576 208.084 317.779 210.964L317.779 210.968Z" fill="black"/>
<path fill-rule="evenodd" clip-rule="evenodd" d="M318.49 205.268C318.27 206.233 316.709 205.858 315.644 205.979C315.843 204.339 317.545 204.349 318.49 205.269L318.49 205.268Z" fill="black"/>
<path fill-rule="evenodd" clip-rule="evenodd" d="M317.779 201.004C316.351 201.246 315.552 200.858 315.644 199.581L317.779 199.581L317.779 201.004Z" fill="black"/>
<path fill-rule="evenodd" clip-rule="evenodd" d="M317.067 191.756L315.644 191.756C315.312 190.238 316.661 190.401 317.779 190.333C317.643 190.909 317.065 191.042 317.067 191.756V191.756Z" fill="black"/>
<path fill-rule="evenodd" clip-rule="evenodd" d="M317.067 187.487L315.644 187.487L315.644 186.064L317.067 186.064L317.067 187.487Z" fill="black"/>
<path fill-rule="evenodd" clip-rule="evenodd" d="M314.221 174.681C314.819 172.421 315.159 175.944 314.933 176.815C316.427 175.25 317.706 175.25 319.202 176.815C317.174 178.717 313.192 180.318 314.221 174.681Z" fill="black"/>
<path fill-rule="evenodd" clip-rule="evenodd" d="M311.376 117.055C310.393 119.113 308.859 115.86 309.242 114.209C310.706 114.405 309.911 116.86 311.376 117.055Z" fill="black"/>
<path fill-rule="evenodd" clip-rule="evenodd" d="M312.088 587.308C312.167 551.168 315.805 524.589 309.953 494.111C307.83 491.729 306.24 488.813 304.262 486.286C307.248 481.18 304.862 469.813 304.974 465.654C302.154 465.391 298.156 466.306 296.437 464.943C299.753 397.86 296.11 330.653 298.571 258.623C288.156 255.387 269.227 261.524 263 255.777C263.028 248.129 269.826 250.766 274.383 250.797C281.589 250.846 290.862 250.889 297.149 250.086C298.418 243.363 294.026 242.301 292.88 237.992C293.159 234.24 297.299 234.348 300.706 233.723C304.361 231.451 302.3 223.46 308.531 223.763C308.111 204.35 308.698 177.384 308.531 152.62C308.381 149.687 304.103 150.882 303.552 148.351C303.191 144.433 308.73 146.415 307.821 141.948C309.987 139.086 303.208 140.252 303.552 136.968C302.693 133.027 307.047 134.298 307.821 131.988C305.041 122.437 301.664 113.482 290.747 112.068C291.103 109.103 288.667 108.93 289.324 105.665C296.258 103.133 306.285 104.242 315.646 104.242C324.845 104.242 334.413 103.34 341.258 105.665C342.638 113.703 334.084 113.759 330.587 117.048C326.975 120.444 326.198 124.564 324.896 130.565C324.306 134.238 329.574 132.052 328.453 136.256C328.028 139.863 322.352 138.218 322.761 142.659C323.043 145.223 326.282 144.83 327.741 146.216C328.059 150.329 323.699 149.763 323.472 153.33C324.042 174.17 323.423 198.816 323.472 222.339C325.407 225.259 326.355 228.337 328.452 230.876C330.771 233.686 334.28 234.86 336.278 237.99C336.879 241.675 333.739 241.617 332.009 242.97C331.957 246.566 332.909 247.04 332.009 250.084C336.599 250.393 343.852 250.084 352.64 250.084C358.461 250.084 371.417 248.003 369.714 255.064C367.967 262.306 338.713 255.512 331.297 257.91C331.083 269.664 331.234 279.792 331.297 289.925C331.551 331.069 330.88 386.573 330.586 430.075C330.502 442.441 331.117 451.321 332.72 464.935C330.428 466.091 328.866 465.274 326.317 464.935C325.858 470.856 323.995 481.137 327.74 484.855C325.955 488.761 324.756 493.253 322.049 496.238C317.791 522.439 317.814 558.886 315.646 585.166C315.395 586.101 314.394 586.285 314.223 587.301L312.092 587.301L312.088 587.308ZM315.644 526.128C316.82 525.588 316.82 520.265 315.644 519.725C314.672 521.825 316.061 522.815 315.644 526.125L315.644 526.128ZM317.779 490.558C316.103 490.541 315.684 491.783 313.51 491.269C311.951 496.12 312.8 498.881 313.51 503.364C314.189 507.652 313.063 512.67 315.644 515.458C316.975 506.228 316.253 499.328 317.779 490.558V490.558ZM319.913 491.268C317.933 490.128 317.946 494.34 319.202 494.114C319.148 492.864 319.361 491.894 319.913 491.264L319.913 491.268ZM322.048 488.418C321.334 488.42 321.201 487.842 320.625 487.707C320.692 488.824 320.529 490.174 322.048 489.841L322.048 488.421L322.048 488.418ZM319.913 487.708C317.676 486.893 318.184 488.824 317.067 489.131C315.779 486.569 317.193 487.034 317.779 484.862C314.55 482.541 315.691 486.784 314.933 487.708C313.99 486.849 310.04 486.996 309.953 489.131C311.637 490.767 316.339 489.386 319.202 489.842C319.171 488.872 319.537 488.282 319.913 487.712L319.913 487.708ZM322.048 484.148C322.007 484.583 321.942 484.991 321.336 484.86C321.417 485.727 321.549 486.544 322.759 486.283C322.647 485.453 322.881 484.273 322.048 484.153L322.048 484.148ZM318.49 484.148L318.49 486.283L320.625 486.283C320.754 484.733 320.042 484.023 318.49 484.143L318.49 484.148ZM312.088 484.148L312.088 486.283L314.222 486.283C314.35 484.733 313.639 484.023 312.088 484.143L312.088 484.148ZM308.53 485.578C308.771 486.153 310.42 486.436 310.665 485.578C311.136 483.928 307.885 484.038 308.53 485.578ZM319.202 482.728C319.721 477.848 318.233 473.483 319.202 469.21C315.594 470.82 319.738 480.181 316.356 482.017C315.947 475.871 317.947 474.174 316.356 469.21L310.665 469.21C309.649 472.901 309.176 480.747 311.376 483.439C314.31 483.529 315.831 482.209 319.202 482.729L319.202 482.728ZM308.53 479.888C308.337 480.857 308.97 482.665 309.242 481.311C309.435 480.341 308.802 478.531 308.53 479.891L308.53 479.888ZM318.49 467.078C319.4 467.117 319.475 467.99 320.625 467.79C321.731 466.04 318.208 465.7 318.49 467.08L318.49 467.078ZM317.779 466.368C316.715 466.49 315.153 466.114 314.933 467.08C315.879 468 317.58 468.02 317.779 466.37L317.779 466.368ZM314.221 466.368C313.103 466.436 311.754 466.273 312.087 467.792L313.51 467.792C313.508 467.082 314.087 466.952 314.221 466.372L314.221 466.368ZM302.128 457.118C299.243 456.843 301.344 461.552 300.705 463.52C303.157 463.42 302.292 457.64 302.128 457.12L302.128 457.118ZM303.551 463.518C306.079 464.624 303.98 461.102 305.685 461.384C305.631 462.623 305.844 463.597 306.397 464.23C308.06 464.01 309.335 462.837 310.666 464.23C311.652 463.793 310.772 461.492 312.089 461.384C312.035 462.623 312.247 463.597 312.8 464.23C315.88 463.365 320.015 464.268 322.76 464.23C322.921 461.834 321.832 455.832 324.895 458.539C321.981 452.814 317.113 459.081 317.781 463.518L317.781 457.116C314.945 456.888 312.524 457.077 311.378 458.539C311.416 457.315 310.83 456.715 309.955 456.404C308.969 456.842 309.849 459.143 308.532 459.25C308.308 458.288 307.519 457.892 307.821 456.404L303.552 456.404C303.129 458.964 302.349 461.174 303.551 463.514L303.551 463.518ZM298.57 457.828C298.655 459.012 298.181 464.271 299.282 462.097C299.197 460.917 299.671 455.657 298.57 457.827L298.57 457.828ZM300.705 417.988C300.821 417.894 300.612 417.4 300.705 417.277L301.416 417.277L301.416 418.7C301.482 420.903 300.677 421.864 300.705 423.679C300.804 430.15 301.528 445.497 302.128 454.271C308.101 453.688 313.992 454.42 319.913 454.271C323.173 454.189 327.773 455.459 327.739 452.136C327.368 449.325 326.686 454.948 326.316 452.136C325.857 449.038 327.244 444.094 325.604 442.176C324.83 452.277 303.893 452.771 304.261 440.753C305.005 416.453 303.7 401.232 304.261 374.591C304.769 350.442 304.973 323.616 304.973 299.179C304.973 288.701 303.725 277.951 304.973 273.567C307.084 266.149 319.956 263.522 324.181 270.01C327.391 274.939 322.818 281.45 327.739 283.528C326.697 274.17 326.226 267.291 326.316 257.916L302.128 257.916C300.575 297.428 301.743 351.372 301.416 388.106C301.714 389.894 298.173 391.413 299.993 392.375C300.057 391.39 301.807 391.628 301.416 393.087L301.416 407.316C301.627 409.218 298.656 405.424 299.282 408.739C300.204 410.539 301.504 417.339 300.705 417.989L300.705 417.988ZM327.027 442.888C326.933 443.824 326.92 448.035 327.739 445.734C327.833 444.794 327.846 440.584 327.027 442.884L327.027 442.888ZM320.625 424.388C320.454 425.48 319.453 424.492 319.202 423.676C322.185 420.334 320.1 415.17 321.336 408.737C321.549 407.339 320.376 407.326 319.913 406.602C322.436 399.412 319.238 383.879 321.336 374.588C315.927 373.446 318.911 380.699 317.067 383.125C315.005 381.016 317.34 377.267 317.067 374.588C314.499 374.658 308.263 374.754 309.953 376.722C309.951 376.327 310.529 375.914 310.665 376.722C310.193 385.262 311.61 395.69 309.953 403.045L309.953 377.434C307.942 378.167 309.792 382.669 309.242 385.259C309.075 386.042 307.814 386.031 307.819 386.682C307.817 386.506 309.118 387.242 309.242 388.105C311.457 403.624 306.923 426.829 309.953 444.308C310.343 443.274 309.122 440.631 310.665 440.75C312.986 441.878 309.21 446.399 312.088 445.73C314.017 447.841 317.337 445.329 319.913 445.73C320.787 436.67 320.807 430.64 320.625 424.39L320.625 424.388ZM299.993 430.798C300.385 434.69 299.158 443.945 300.705 444.316C300.313 440.416 301.54 431.166 299.993 430.796L299.993 430.798ZM322.759 429.368C323.022 431.281 322.107 438.028 323.471 436.482C323.208 434.582 324.122 427.832 322.759 429.372L322.759 429.368ZM322.759 416.568C323.086 419.114 322.014 426.762 323.471 425.817C323.143 423.267 324.215 415.617 322.759 416.567L322.759 416.568ZM322.759 411.588C322.566 412.557 323.2 414.365 323.471 413.011C323.664 412.041 323.03 410.231 322.759 411.591L322.759 411.588ZM322.759 405.898C322.767 406.941 322.49 411.719 323.471 409.455C323.463 408.405 323.739 403.625 322.759 405.895L322.759 405.898ZM326.316 400.208C326.29 399.437 330.384 395.831 325.604 395.939C326.403 399.409 323.664 406.416 327.739 406.61C326.788 404.12 326.413 403.05 326.316 400.21L326.316 400.208ZM322.759 394.508C322.645 395.003 323.008 398.648 323.471 396.642C324.095 393.942 323.089 393.092 322.759 394.512L322.759 394.508ZM318.49 371.038C316.559 370.598 312.844 371.941 312.088 370.327L318.49 370.327C317.975 367.818 311.033 367.506 309.242 369.615C312.918 370.782 310.056 371.15 309.242 373.173C312.378 373.357 314.745 374.31 318.49 373.884L318.49 371.034L318.49 371.038ZM322.759 366.768C322.665 367.704 322.652 371.915 323.471 369.614C323.564 368.674 323.578 364.464 322.759 366.764L322.759 366.768ZM321.336 368.898L319.202 368.898C319.11 370.175 319.908 370.562 321.336 370.321L321.336 368.901L321.336 368.898ZM322.048 364.628L319.913 364.628C319.714 366.249 320.084 367.302 321.336 367.474C321.56 366.514 322.348 366.114 322.048 364.624L322.048 364.628ZM319.202 366.768C318.948 362.94 307.228 364.358 307.819 366.057C309.576 366.777 315.167 367.947 319.202 366.767L319.202 366.768ZM319.913 355.388C318.144 356.465 320.35 361.516 318.49 362.502C318.771 357.328 317.812 350.915 319.202 346.851L307.819 346.851C308.582 348.59 308.271 352.768 309.953 349.697C309.405 352.864 311.272 363.888 308.53 360.369C307.884 367.743 317.542 360.707 321.336 363.926C321.477 362.896 320.647 357.786 319.913 355.386L319.913 355.388ZM324.181 317.678C320.785 320.178 323.468 324.763 323.47 329.061C323.472 334.962 321.281 342.522 324.181 345.424L324.181 317.684L324.181 317.678ZM322.048 342.578L320.625 342.578L320.625 345.424L322.048 345.424L322.048 342.574L322.048 342.578ZM309.242 333.328C309.083 331.747 314.274 334.304 311.376 335.462C311.296 334.594 311.163 333.777 309.953 334.039C310.112 335.384 309.151 335.609 309.242 336.885C309.767 338.02 312.724 336.722 312.088 339.019C310.307 338.93 309.86 337.661 309.242 339.73C310.296 339.862 309.894 341.449 309.953 342.576C312.501 341.302 312.116 342.636 312.088 345.422L319.202 345.422C320.447 342.911 319.762 339.567 319.202 336.885C320.547 336.725 320.771 337.687 322.048 337.596L322.048 334.039C319.519 332.933 321.618 336.456 319.913 336.173C320.851 333.968 317.805 332.227 319.913 331.193C321.137 331.413 318.989 333.664 322.048 333.327L322.048 329.77C320.189 329.968 318.487 330.01 319.202 327.636C321.143 327.118 320.634 329.05 322.048 329.059L322.048 325.502C320.824 325.221 320.224 326.558 319.913 325.502C319.733 319.97 319.076 314.728 319.202 309.851C319.237 308.499 319.284 306.36 320.625 305.582C320.692 306.7 320.529 308.049 322.048 307.716L322.048 304.159C320.824 303.878 320.224 305.215 319.913 304.159C320.023 296.878 318.295 292.413 320.625 288.508C320.736 289.345 320.502 290.527 321.336 290.642C321.375 289.732 322.248 289.657 322.048 288.508C322.557 286.576 318.693 289.017 319.202 287.085C321.311 284.925 318.515 277.861 320.625 275.702C320.692 276.82 320.529 278.168 322.048 277.836L322.048 274.99C319.925 274.904 319.663 274.421 319.913 270.721C318.269 269.519 316.064 268.878 312.799 269.298C312.039 272.2 308.783 270.504 308.53 274.989C309.876 274.83 310.1 275.791 311.376 275.701C311.16 274.041 309.857 272.636 312.088 272.143C311.619 277.367 313.028 284.466 311.376 288.506C311.309 287.388 311.472 286.039 309.953 286.372L309.953 290.641C311.177 290.922 311.777 289.585 312.088 290.641C311.615 300.366 313.033 311.981 311.376 320.521C311.296 319.653 311.163 318.836 309.953 319.098L309.953 322.655C311.177 322.936 311.777 321.599 312.088 322.655C312.014 325.661 308.498 321.746 308.53 325.501C310.19 326.563 311.595 325.261 312.088 326.212C311.485 327.269 309.797 327.241 308.53 327.635C307.514 330.731 310.962 330.906 309.242 332.615C308.846 332.635 308.434 333.215 309.242 333.345L309.242 333.328ZM311.376 343.998C310.662 344 310.529 343.422 309.953 343.287C310.021 344.405 309.858 345.754 311.376 345.421L311.376 344.001L311.376 343.998ZM321.336 338.308C320.787 338.794 319.484 342.546 322.048 341.865C321.658 340.825 322.879 338.185 321.336 338.305L321.336 338.308ZM322.048 321.948L320.625 321.948L320.625 324.794L322.048 324.794L322.048 321.944L322.048 321.948ZM321.336 316.968C320.787 317.454 319.484 321.206 322.048 320.525C321.658 319.485 322.879 316.845 321.336 316.965L321.336 316.968ZM309.953 314.828C310.112 316.173 309.151 316.397 309.242 317.674C310.151 317.713 310.227 318.586 311.376 318.385C311.48 316.625 311.509 314.935 309.953 314.825L309.953 314.828ZM323.47 309.138C322.823 310.141 321.448 316.428 324.181 316.252C323.736 314.092 325.093 310.132 323.47 309.142L323.47 309.138ZM321.336 312.698C320.787 313.184 319.484 316.936 322.048 316.255C321.658 315.215 322.879 312.575 321.336 312.695L321.336 312.698ZM311.376 311.278C309.396 310.138 309.409 314.35 310.665 314.124C310.888 313.154 311.678 312.754 311.376 311.274L311.376 311.278ZM325.604 291.358C326.018 297.29 324.742 309.319 326.316 311.278C325.903 305.348 327.178 293.318 325.604 291.358ZM320.625 308.428C320.94 309.772 319.657 312.716 322.048 311.985C322.152 310.215 322.18 308.535 320.625 308.425L320.625 308.428ZM311.376 307.718C309.35 306.742 307.099 308.993 309.242 309.852C309.533 308.639 310.159 310.001 311.376 309.852L311.376 307.722L311.376 307.718ZM309.953 302.738C309.945 303.678 308.706 303.388 308.53 304.161C310.401 303.95 309.091 306.921 311.376 306.295C311.48 304.535 311.509 302.855 309.953 302.745L309.953 302.738ZM323.47 299.178C322.283 301.283 322.869 304.59 323.47 305.581C323.761 304.161 325.232 300.311 323.47 299.181L323.47 299.178ZM322.048 299.888L320.625 299.888L320.625 302.734L322.048 302.734L322.048 299.884L322.048 299.888ZM311.376 299.888L309.242 299.888C309.112 301.44 309.824 302.151 311.376 302.022L311.376 299.892L311.376 299.888ZM322.048 296.338L320.625 296.338L320.625 299.184L322.048 299.184L322.048 296.334L322.048 296.338ZM323.47 276.418C322.333 282.165 322.25 292.738 323.47 298.473C324.262 292.203 323.327 282.143 323.47 276.423L323.47 276.418ZM311.376 295.628L309.242 295.628C309.041 297.488 309.502 298.688 311.376 298.474L311.376 295.624L311.376 295.628ZM322.048 292.068L320.625 292.068L320.625 294.914L322.048 294.914L322.048 292.064L322.048 292.068ZM311.376 293.488L311.376 292.065C309.625 290.959 309.284 294.481 310.665 294.199C310.705 293.769 310.771 293.359 311.376 293.489L311.376 293.488ZM322.048 283.528L320.625 283.528L320.625 286.374L322.048 286.374L322.048 283.524L322.048 283.528ZM311.376 280.688C308.839 281.307 308.965 285.438 311.376 285.668C311.221 283.058 310.398 282.938 311.376 280.688ZM322.048 279.258C319.9 278.161 320.176 282.94 321.336 282.816C321.933 281.986 322.274 280.906 322.048 279.256L322.048 279.258ZM311.376 277.128C309.301 276.082 309.301 280.308 311.376 279.262L311.376 277.132L311.376 277.128ZM360.465 255.788L360.465 252.231L351.928 252.231C352.636 256.556 349.849 254.627 349.082 252.942C348.836 258.522 356.722 256.062 360.465 255.792L360.465 255.788ZM341.256 252.228C341.343 253.414 338.951 256.755 341.967 256.497C341.558 255.247 342.827 252.317 341.256 252.227L341.256 252.228ZM339.122 252.228C335.948 252.542 338.063 253.728 336.988 255.785C337.95 256.009 338.346 256.798 339.834 256.496C340.349 254.316 338.606 254.406 339.122 252.226L339.122 252.228ZM336.276 252.228C332.47 251.872 333.884 254.031 334.142 256.497L336.276 256.497L336.276 252.227L336.276 252.228ZM332.719 252.228C329.929 251.573 332.203 255.981 330.585 256.497L332.719 256.497L332.719 252.227L332.719 252.228ZM329.162 252.228C324.497 252.27 317.85 252.174 312.088 252.228C307.018 252.275 299.536 250.563 299.993 255.785C308.058 257.442 319.2 256.024 328.451 256.496C329.792 255.386 327.43 253.726 329.162 252.226L329.162 252.228ZM296.436 254.358C295.037 254.145 295.025 255.319 294.301 255.781C294.18 254.717 294.555 253.156 293.59 252.935C294.178 254.946 292.587 254.778 292.878 256.492L296.436 256.492L296.436 254.362L296.436 254.358ZM292.168 252.938C289.287 251.697 290.964 259.017 292.168 255.784C290.334 255.604 293.144 254.554 292.168 252.934L292.168 252.938ZM282.208 252.938C280.021 251.85 280.021 257.584 282.208 256.495L282.208 252.935L282.208 252.938ZM279.362 254.358C277.907 251.424 269.512 251.426 268.69 255.069C269.58 257.139 279.536 257.889 279.366 254.359L279.362 254.358ZM346.236 252.228C346.131 253.993 346.103 255.681 347.659 255.785C347.344 254.435 348.626 251.495 346.236 252.225L346.236 252.228ZM344.102 252.228C343.197 253.07 343.8 254.916 344.813 255.785C344.424 254.745 345.644 252.105 344.102 252.225L344.102 252.228ZM329.162 241.558C329.354 242.442 327.867 250.177 330.585 250.807C329.265 247.027 331.697 243.287 329.162 241.557L329.162 241.558ZM324.893 241.558C316.6 241.388 310.483 241.914 303.55 241.558C303.04 245.72 303.36 246.417 303.55 250.807L320.624 250.807C320.308 247.64 319.382 244.214 321.335 242.981C321.777 245.622 320.179 250.303 322.758 250.807C325.159 248.628 321.473 243.926 323.47 242.27C324.873 243.506 323.379 251.331 324.893 250.096L324.893 241.556L324.893 241.558ZM298.57 247.248C298.476 248.184 298.463 252.395 299.282 250.094C299.376 249.154 299.389 244.944 298.57 247.244L298.57 247.248ZM300.705 241.558C300.824 242.321 299.465 249.618 302.128 250.095C301.632 247.265 303.368 242.205 300.705 241.555L300.705 241.558ZM326.316 242.268C326.122 243.237 326.756 245.045 327.027 243.691C327.221 242.721 326.587 240.911 326.316 242.271L326.316 242.268ZM329.162 237.998C328.968 238.967 329.602 240.775 329.873 239.421C330.067 238.451 329.432 236.651 329.162 238.001L329.162 237.998ZM326.316 237.288C326.201 237.784 326.564 241.429 327.027 239.422C327.652 236.712 326.646 235.862 326.316 237.292L326.316 237.288ZM324.181 240.128C325.982 237.008 321.624 236.078 324.181 240.128V240.128ZM320.625 236.578C320.852 238.228 320.51 239.309 319.913 240.135C322.528 240.815 322.741 236.635 320.625 236.575L320.625 236.578ZM319.202 236.578C317.054 235.481 317.33 240.26 318.49 240.135C319.087 239.305 319.428 238.225 319.202 236.575L319.202 236.578ZM314.933 235.868C314.351 236.384 313.025 240.792 315.644 240.137C315.366 237.967 317.514 236.507 314.933 235.867L314.933 235.868ZM311.376 236.578C309.743 237.137 310.685 240.982 312.799 240.135C312.483 238.785 313.766 235.845 311.376 236.575L311.376 236.578ZM309.242 235.868C306.694 235.454 307.079 237.973 307.107 240.137L309.242 240.137C308.664 237.667 310.57 237.127 309.242 235.867L309.242 235.868ZM304.262 235.868C303.443 236.709 303.457 238.383 303.551 240.137L305.685 240.137C305.674 238.247 306.079 235.947 304.262 235.867L304.262 235.868ZM302.128 236.578C299.263 235.884 299.263 240.83 302.128 240.135L302.128 236.575L302.128 236.578ZM297.859 237.288C297.745 237.784 298.107 241.429 298.57 239.422C299.195 236.712 298.188 235.862 297.859 237.292L297.859 237.288ZM317.067 235.148C319.117 235.233 321.724 234.759 322.758 235.859C322.105 232.244 320.984 229.097 320.624 225.188C316.316 224.606 312.609 226.216 309.952 225.188C310.201 229.468 308.966 232.265 307.106 234.437C307.031 231.132 310.847 227.942 307.818 225.9C307.675 229.789 305.439 231.584 304.972 235.149L316.355 235.149C316.756 232.573 314.244 229.252 316.355 227.323C315.831 230.703 317.156 232.223 317.067 235.153L317.067 235.148ZM322.048 228.748C322.417 231.461 323.617 233.344 324.894 235.151C324.464 232.501 323.85 230.031 322.048 228.751L322.048 228.748ZM304.973 232.308C302.965 232.198 303.19 234.319 302.127 235.154C304.136 235.264 303.911 233.134 304.973 232.304L304.973 232.308ZM319.913 213.808C317.751 213.362 313.785 214.719 312.799 213.097C314.146 211.835 317.498 212.578 319.913 212.386L319.913 151.914L312.088 151.914L312.088 179.66C314.019 180.1 317.734 178.757 318.49 180.371C319.055 183.975 311.277 182.376 316.356 181.082L312.087 181.082C312.731 192.806 311.733 207.19 312.087 223.768C316.015 223.496 315.984 223.496 319.912 223.768C319.913 220.448 319.913 217.128 319.913 213.808ZM317.779 147.647C315.616 148.093 311.651 146.736 310.665 148.358C313 149.104 313.802 147.902 315.644 149.781C314.539 147.252 318.061 149.352 317.779 147.647ZM314.221 144.09C309.215 145.499 319.695 145.14 320.624 144.09C319.894 142.511 313.4 144.321 314.221 144.09ZM321.336 141.955C317.82 140.959 312.719 140.962 309.953 142.666C311.857 143.72 317.837 143.18 321.336 141.955ZM317.067 140.532C318.318 140.123 321.247 141.392 321.336 139.821C320.085 140.231 317.156 138.961 317.067 140.532ZM324.181 136.975C318.815 136.218 312.989 134.48 305.684 136.264C307.94 140.1 320.756 138.78 324.181 136.975ZM320.625 129.861C319.226 129.648 319.214 130.822 318.49 131.284C318.8 122.82 321.886 117.132 327.028 113.498L322.048 113.498C320.473 116.904 319.836 121.247 317.779 124.169C317.412 119.06 319.81 116.715 321.336 113.498C315.357 114.255 312.226 113.451 305.685 113.498C308.051 117.772 310.745 121.719 312.088 127.015C308.857 126.818 310.537 131.572 309.953 132.706C314.979 132.539 315.744 132.057 320.625 132.706L320.625 129.861V129.861ZM302.128 114.21C304.844 115.526 305.81 118.59 307.819 120.613C307.733 117.122 304.308 113.24 302.128 114.21ZM333.43 113.498C330.242 113.652 326.3 116.774 327.739 119.189C329.204 116.861 331.42 115.282 333.43 113.498ZM332.008 106.384C332.42 108.694 331.523 109.694 331.297 111.364C334.492 111.917 333.654 106.918 332.008 106.384ZM325.605 105.673C326.801 108.199 323.196 111.404 326.316 111.364C327.912 110.404 326.98 106.013 325.605 105.673V105.673ZM321.336 106.384C323.252 107.225 321.334 110.093 321.336 111.364C326.658 112.603 323.151 103.929 321.336 106.384ZM318.49 105.673C317.972 107.289 319.772 111.223 317.067 110.653L317.067 105.673C313.983 105.197 315.152 108.975 314.933 111.364L319.912 111.364C320.934 109.2 320.639 106.511 318.49 105.673V105.673ZM312.088 105.673L312.088 111.364C312.925 111.253 314.108 111.487 314.222 110.653C312.021 110.482 315.334 104.798 312.088 105.673V105.673ZM309.242 105.673C308.619 106.38 307.262 111.834 309.953 111.364C309.52 109.663 310.846 106.202 309.242 105.673V105.673ZM307.107 105.673C302.704 105.026 305.304 110.285 304.261 111.364L307.107 111.364C307.268 108.392 305.951 108.004 307.107 105.673V105.673ZM301.416 105.673L301.416 111.364L303.551 111.364C302.175 110.132 304.161 105.537 301.416 105.673V105.673ZM298.57 105.673C297.392 107.102 296.017 111.114 299.282 111.364C298.848 109.663 300.175 106.202 298.57 105.673V105.673ZM335.565 109.941C335.553 109.568 335.843 111.784 336.276 109.941C337.271 105.714 335.488 107.552 335.565 109.941ZM329.162 107.807C327.41 112.23 331.391 110.153 329.162 107.807V107.807ZM296.436 106.384C294.165 105.381 294.638 110.641 295.724 110.653C295.631 108.899 295.617 107.225 296.436 106.384V106.384ZM292.168 106.384C291.244 107.33 291.23 109.031 292.879 109.23C292.758 108.165 293.133 106.604 292.168 106.384V106.384Z" fill="black"/>
<path fill-rule="evenodd" clip-rule="evenodd" d="M317.067 274.278C312.825 274.768 315.409 271.248 317.067 274.278V274.278Z" fill="black"/>
<path d="M375.577 341.703C374.698 341.703 373.673 341.601 372.501 341.396C371.329 341.22 370.113 340.824 368.854 340.209C367.623 339.594 366.407 338.729 365.206 337.616C364.005 336.474 362.921 334.979 361.954 333.134C361.017 331.259 360.255 328.974 359.669 326.278C359.083 323.554 358.79 320.316 358.79 316.566V289.979C358.79 286.2 359.098 282.978 359.713 280.312C360.328 277.616 361.148 275.36 362.174 273.544C363.199 271.698 364.371 270.233 365.689 269.149C367.037 268.065 368.429 267.245 369.864 266.688C371.3 266.103 372.721 265.722 374.127 265.546C375.533 265.37 376.837 265.282 378.038 265.282C381.085 265.282 383.648 265.707 385.729 266.557C387.838 267.377 389.537 268.52 390.826 269.984C392.145 271.42 393.082 273.104 393.639 275.038C394.225 276.972 394.518 279.022 394.518 281.19C394.518 282.802 394.415 284.296 394.21 285.673C394.034 287.021 393.785 288.515 393.463 290.155H384.366V286.596C384.366 278.363 382.154 274.247 377.73 274.247C376.529 274.247 375.489 274.452 374.61 274.862C373.731 275.272 372.999 275.976 372.413 276.972C371.827 277.938 371.388 279.228 371.095 280.839C370.831 282.45 370.699 284.457 370.699 286.859V320.873C370.699 323.217 370.831 325.165 371.095 326.718C371.388 328.271 371.812 329.516 372.369 330.453C372.955 331.391 373.673 332.064 374.522 332.475C375.401 332.855 376.441 333.046 377.643 333.046C378.902 333.046 379.986 332.724 380.895 332.079C381.803 331.405 382.55 330.497 383.136 329.354C383.722 328.212 384.146 326.864 384.41 325.312C384.703 323.759 384.85 322.074 384.85 320.258V310.458H379.005V302.987H395.924V341H388.365L387.135 333.881C385.699 336.664 384.044 338.671 382.169 339.901C380.323 341.103 378.126 341.703 375.577 341.703ZM406.471 265.941H434.288V274.906H417.853V297.362H430.553V306.327H417.853V332.035H434.728V341H406.471V265.941ZM449.889 274.906H437.804V265.941H473.312V274.906H461.271V341H449.889V274.906ZM354.835 378.941H366.48L374.742 438.399H375.226L383.531 378.941H395.133L381.466 454H368.458L354.835 378.941ZM410.689 378.941H423.785L437.672 454H426.158L424.093 440.553H410.382L408.404 454H396.847L410.689 378.941ZM422.774 431.983L417.501 394.586H417.018L411.7 431.983H422.774ZM461.139 454.659C459.967 454.659 458.692 454.557 457.315 454.352C455.968 454.176 454.605 453.78 453.229 453.165C451.881 452.55 450.577 451.686 449.317 450.572C448.087 449.43 446.988 447.936 446.021 446.09C445.084 444.244 444.322 441.974 443.736 439.278C443.18 436.554 442.901 433.316 442.901 429.566V402.979C442.901 399.2 443.194 395.978 443.78 393.312C444.366 390.616 445.143 388.36 446.109 386.544C447.076 384.698 448.189 383.233 449.449 382.149C450.709 381.065 452.013 380.245 453.36 379.688C454.708 379.103 456.041 378.722 457.359 378.546C458.707 378.37 459.952 378.282 461.095 378.282C464.083 378.282 466.573 378.707 468.565 379.557C470.587 380.377 472.198 381.52 473.399 382.984C474.63 384.42 475.494 386.104 475.992 388.038C476.52 389.972 476.783 392.022 476.783 394.19C476.783 395.802 476.695 397.296 476.52 398.673C476.373 400.021 476.139 401.515 475.816 403.155H466.588V399.332C466.588 395.201 466.134 392.11 465.226 390.06C464.317 388.009 462.984 386.983 461.227 386.983C460.172 386.983 459.249 387.188 458.458 387.599C457.667 388.009 457.008 388.712 456.48 389.708C455.953 390.675 455.543 391.964 455.25 393.575C454.986 395.187 454.854 397.193 454.854 399.596V433.873C454.854 436.217 454.957 438.165 455.162 439.718C455.396 441.271 455.763 442.516 456.261 443.453C456.759 444.391 457.403 445.064 458.194 445.475C459.015 445.855 459.996 446.046 461.139 446.046C461.871 446.046 462.574 445.885 463.248 445.562C463.922 445.211 464.508 444.684 465.006 443.98C465.533 443.248 465.943 442.34 466.236 441.256C466.559 440.143 466.72 438.839 466.72 437.345V430.006H477.135V436.949C477.135 442.984 475.758 447.438 473.004 450.309C470.25 453.18 466.295 454.63 461.139 454.659ZM502.271 454.659C501.1 454.659 499.825 454.557 498.448 454.352C497.101 454.176 495.738 453.78 494.361 453.165C493.014 452.55 491.71 451.686 490.45 450.572C489.22 449.43 488.121 447.936 487.154 446.09C486.217 444.244 485.455 441.974 484.869 439.278C484.312 436.554 484.034 433.316 484.034 429.566V402.979C484.034 399.2 484.327 395.978 484.913 393.312C485.499 390.616 486.275 388.36 487.242 386.544C488.209 384.698 489.322 383.233 490.582 382.149C491.842 381.065 493.146 380.245 494.493 379.688C495.841 379.103 497.174 378.722 498.492 378.546C499.84 378.37 501.085 378.282 502.228 378.282C505.216 378.282 507.706 378.707 509.698 379.557C511.72 380.377 513.331 381.52 514.532 382.984C515.763 384.42 516.627 386.104 517.125 388.038C517.652 389.972 517.916 392.022 517.916 394.19C517.916 395.802 517.828 397.296 517.652 398.673C517.506 400.021 517.271 401.515 516.949 403.155H507.721V399.332C507.721 395.201 507.267 392.11 506.358 390.06C505.45 388.009 504.117 386.983 502.359 386.983C501.305 386.983 500.382 387.188 499.591 387.599C498.8 388.009 498.141 388.712 497.613 389.708C497.086 390.675 496.676 391.964 496.383 393.575C496.119 395.187 495.987 397.193 495.987 399.596V433.873C495.987 436.217 496.09 438.165 496.295 439.718C496.529 441.271 496.896 442.516 497.394 443.453C497.892 444.391 498.536 445.064 499.327 445.475C500.147 445.855 501.129 446.046 502.271 446.046C503.004 446.046 503.707 445.885 504.381 445.562C505.055 445.211 505.641 444.684 506.139 443.98C506.666 443.248 507.076 442.34 507.369 441.256C507.691 440.143 507.853 438.839 507.853 437.345V430.006H518.268V436.949C518.268 442.984 516.891 447.438 514.137 450.309C511.383 453.18 507.428 454.63 502.271 454.659ZM527.232 378.941H538.614V454H527.232V378.941ZM551.49 378.941H560.719L578.912 429.171H579.176C579.088 427.999 578.971 426.695 578.824 425.26C578.678 423.824 578.546 422.198 578.429 420.382C578.312 418.536 578.209 416.456 578.121 414.142C578.033 411.827 577.989 409.22 577.989 406.319V378.941H588.185V454H578.868L560.763 405.089H560.411C560.499 406.407 560.616 407.843 560.763 409.396C560.909 410.919 561.041 412.721 561.158 414.801C561.275 416.881 561.378 419.312 561.466 422.096C561.554 424.85 561.598 428.131 561.598 431.939V454H551.49V378.941ZM601.061 378.941H628.878V387.906H612.442V410.362H625.143V419.327H612.442V445.035H629.317V454H601.061V378.941ZM637.535 378.941H649.356C651.144 378.941 652.989 379 654.894 379.117C656.827 379.205 658.702 379.513 660.519 380.04C662.364 380.567 664.093 381.388 665.704 382.501C667.345 383.585 668.78 385.123 670.011 387.115C671.241 389.078 672.208 391.568 672.911 394.586C673.644 397.574 674.01 401.236 674.01 405.572V427.369C674.01 431.705 673.644 435.382 672.911 438.399C672.208 441.417 671.241 443.907 670.011 445.87C668.78 447.833 667.345 449.371 665.704 450.484C664.093 451.568 662.364 452.374 660.519 452.901C658.702 453.429 656.827 453.751 654.894 453.868C652.989 453.956 651.144 454 649.356 454H637.535V378.941ZM651.817 446.046C653.868 446.046 655.553 445.782 656.871 445.255C658.219 444.728 659.273 443.805 660.035 442.486C660.826 441.139 661.368 439.322 661.661 437.037C661.954 434.723 662.101 431.808 662.101 428.292V405.001C662.101 401.485 661.954 398.585 661.661 396.3C661.368 393.985 660.826 392.169 660.035 390.851C659.273 389.503 658.219 388.565 656.871 388.038C655.553 387.511 653.868 387.247 651.817 387.247H648.917V446.046H651.817Z" fill="white"/>
<defs>
<filter id="filter0_d_305_43" x="222.5" y="47.293" width="717.5" height="641.414" filterUnits="userSpaceOnUse" color-interpolation-filters="sRGB">
<feFlood flood-opacity="0" result="BackgroundImageFix"/>
<feColorMatrix in="SourceAlpha" type="matrix" values="0 0 0 0 0 0 0 0 0 0 0 0 0 0 0 0 0 0 127 0" result="hardAlpha"/>
<feOffset dy="20"/>
<feGaussianBlur stdDeviation="5"/>
<feComposite in2="hardAlpha" operator="out"/>
<feColorMatrix type="matrix" values="0 0 0 0 0.4875 0 0 0 0 0.4875 0 0 0 0 0.4875 0 0 0 0.25 0"/>
<feBlend mode="normal" in2="BackgroundImageFix" result="effect1_dropShadow_305_43"/>
<feBlend mode="normal" in="SourceGraphic" in2="effect1_dropShadow_305_43" result="shape"/>
</filter>
<linearGradient id="paint0_linear_305_43" x1="930" y1="353" x2="4.5605e-05" y2="353" gradientUnits="userSpaceOnUse">
<stop stop-color="#45D0DE"/>
<stop offset="1" stop-color="#00D4A2"/>
</linearGradient>
</defs>
</svg>
